<svg xmlns="http://www.w3.org/2000/svg" viewBox="0 0 84.09 83.89"><title>Asset 1</title><polygon points="0 83.89 0 0 84.09 0 84.09 33.36 75.56 41.89 84.09 50.42 84.09 83.89 0 83.89" fill="#231f20"/><path d="M78.38,78.28H5.71V5.61H78.38V31.1L67.49,42l10.89,10.9ZM52.15,23.8H37.65V34.7h14.5Zm0,25.39H37.65v11h14.5Z" fill="#00aeef"/><polygon points="59.55 78.39 59.55 64.98 72.97 64.98 72.97 75.12 74.58 78.39 59.55 78.39" fill="#231f20"/><rect x="70.19" y="69.96" width="8.51" height="8.51" fill="#231f20"/><rect x="50.21" y="64.98" width="12.44" height="13.42" fill="#231f20"/><path d="M60.83,76.42H52.12V73H57v-.5H52.12V66.73h8.71v3.39H55.52v.49h5.31Z" fill="#f9ed32"/><path d="M71.63,76.42H67.75l-.07-.15L66.06,73l-.24-.48h1.45V70.12H65.34V73h.35l1.7,3.4H61.46V66.73h9.69v8.72Z" fill="#f9ed32"/><path d="M77.34,76.5H72.56V71.72h4.78Z" fill="#f15a29"/></svg>